<?xml version="1.0" encoding="utf-8"?>
<!-- Generator: Adobe Illustrator 24.0.0, SVG Export Plug-In . SVG Version: 6.00 Build 0)  -->
<svg version="1.1" xmlns="http://www.w3.org/2000/svg" xmlns:xlink="http://www.w3.org/1999/xlink" x="0px" y="0px"
	 viewBox="0 0 1108.1 1118.6" style="enable-background:new 0 0 1108.1 1118.6;" xml:space="preserve">
<style type="text/css">
	.st0{fill:none;stroke:#FFFFFF;stroke-width:40.3767;stroke-linecap:round;stroke-linejoin:round;stroke-miterlimit:10;}
	.st1{fill:none;stroke:#FFFFFF;stroke-width:39.0315;stroke-miterlimit:10;}
	.st2{fill:#BD1622;}
	.st3{fill:#E20613;}
	.st4{fill:#9D9D9D;}
	.st5{fill:#FFCE01;}
	.st6{fill:#2B4294;}
	.st7{fill:#F8BA83;}
	.st8{fill:#A36234;}
	.st9{fill:#575756;}
	.st10{fill:#D9D9D9;}
	.st11{fill:#FFF6B1;}
	.st12{fill:#B6970C;}
	.st13{fill:#272C63;}
	.st14{fill:#C18A62;}
	.st15{fill:#3F1E0E;}
	.st16{fill:#4F2712;}
	.st17{fill:#F8D6AA;}
	.st18{fill:#8692C8;}
	.st19{fill:#B6B7B8;}
	.st20{fill:#E4A551;}
	.st21{fill:#AB7C3D;}
	.st22{fill:#E2E2E3;}
	.st23{fill:#6A6A6A;}
	.st24{fill:#806701;}
	.st25{fill:#BF9B01;}
	.st26{fill:#E9B774;}
	.st27{fill:#D3D4D4;}
</style>
<g id="Capa_6">
</g>
<g id="Capa_1">
	<g id="Capa_1_2_">
		<g id="Capa_4">
			<path class="st0" d="M1087.3,74.8c0-0.3,0-0.5,0-0.8c0.1-4.4-0.2-7.1-0.5-8.8c-1.4-9.7-4.8-18.9-6.3-18.7c-0.1,0-0.2,0.1-0.3,0.3
				c-0.7-1-1.5-1.8-2.4-2.6l0,0l0,0c-0.2-0.2-0.5-0.4-0.7-0.6c-0.3-0.2-0.5-0.4-0.8-0.6c-1.4-0.9-2.8-1.8-4.2-2.6
				c-2.2-1.4-4.6-2.6-7-3.6c-14.3-5.6-28.5-1.5-36.9,2.3c-2.3,0.8-4.7,1.8-7.2,2.9c0-0.5-0.5-6-3.4-11.2c-1.6-2.9-3.8-5.4-6.5-7.4
				c-1.9-1.1-3.9-1.9-6-2.5c-16.4-4.6-32.8,7.6-39.4,13.3c-3.4,2.2-6.8,4.5-10.3,7.1c-16,10.4-30,23.5-41.4,38.9
				c-6.6,8.9-12.1,18.5-16.7,28.5c-0.9,0.2-5.1,2.3-15.4,8.8c-24.9,13.2-65,42.2-110.2,77.4c-2.9,2.1-5.8,4.3-8.8,6.5
				c-9.3,6.8-19.2,14.2-29.7,22c0,0-0.5,0.4-1.5,1.2c-0.3,0.2-0.5,0.4-0.9,0.7c-10.5,8.1-57.2,44.7-166.9,140.1
				c-13.4,11.3-25.5,21.4-35.8,30.1c-11.6,9.7-21.8,19.2-30.8,28.3c-13.1,11.7-37.3,34.7-53.7,71.4c-1.5,3.3-2.8,6.6-4.1,10v0.1
				c-0.3,0.7-0.6,1.5-0.8,2.2c-4.7,11.4-6.8,19.6-7.6,23.8c-0.2,0.1-0.4,0.2-0.6,0.2c-1.7,0.4-3.4,1.2-5,2.3
				c-1.5,0.8-2.9,1.6-4.3,2.5c-8.3,5.8-9.4,11.1-17.6,22.5c-3.5,4.9-7.2,9.5-11.3,13.9c-2.6,2.6-5.4,5.4-8.1,8.1
				c-0.4,0.4-0.9,0.8-1.3,1.2c-3.6,3.3-7.2,6.1-13.7,12.2c-4.2,4.1-7.6,7.5-9.9,9.8c-0.6-0.4-1.7-1-3.1-1.8c-1-0.9-2.1-1.9-3.2-2.9
				c-0.7-0.6-1.5-1.1-2.4-1.4c-0.3-0.4-0.5-0.7-0.7-1c-0.2-0.5-1.3-0.5-2.9,0c-0.3-0.1-0.5-0.3-0.8-0.4l0,0
				c-5.7-3.4-16.2-9.7-29.5-17.7c-35.6-21.5-41.9-23.5-50.3-23.3c-18.2,0.3-32.9,11.6-37.9,15.5c-3.2,2.5-6.2,5.2-9.4,8.8
				c-0.1,0.1-0.2,0.2-0.3,0.3s-0.1,0.1-0.2,0.2c-0.4,0.4-0.7,0.8-1.1,1.1c-0.3,0.3-0.6,0.7-0.9,1c-0.1,0.1-0.1,0.2-0.2,0.2
				c-2.6,3-5.2,6.5-7.8,10.4c-10.2,14.7-16.9,29.9-24.7,50c-4.4,11.4-9.4,24.9-14.6,40.1c-5.2,15.2-9.9,29.6-13.8,41.8
				c-2.1,5-4.8,11-8,18.4c-2.1,4.7-3,9.8-3.1,15.1c0,0.1,0,0.2-0.1,0.4c0,0.3-0.1,0.5-0.1,0.8c0,0.2,0,0.4-0.1,0.6
				c0,0.3,0,0.5-0.1,0.8c0,0.2,0,0.4,0,0.6c0,0.3,0,0.6,0,0.9c0,0.2,0,0.3,0,0.5c0,0.3,0,0.7,0,1c0,0.1,0,0.2,0,0.3
				c0,0.5,0,0.9,0.1,1.4c0,0.1,0,0.2,0,0.3c0,0.4,0.1,0.8,0.1,1.2c0,0.1,0,0.3,0,0.4c0,0.3,0.1,0.7,0.1,1c0,0.2,0,0.3,0.1,0.5
				c0,0.3,0.1,0.6,0.1,1c0,0.2,0.1,0.3,0.1,0.5c0.1,0.3,0.1,0.7,0.2,1c0,0.2,0.1,0.3,0.1,0.5c0.1,0.4,0.1,0.7,0.2,1.1
				c0,0.1,0.1,0.3,0.1,0.4c0.1,0.4,0.2,0.8,0.3,1.2c0,0.1,0,0.2,0.1,0.3c3,12,9.9,24.6,16.3,34.5c4.7,7.8,9.1,13.7,11.2,16.5
				c-0.2,0.3-0.4,0.6-0.6,0.9c-1.2,2.1-1.9,4.3-3.8,7.5c-0.7,1.1-1.4,2.2-2,3.1c-0.1,0.1-0.2,0.3-0.3,0.4c-4.1,6-6.9,7.6-8.6,8.2
				c-1.4,0.3-3.2,0.3-5.3,0.1c-0.9-0.2-2-0.4-3.3-0.7c-3.2-0.6-5.9-1.1-8.2-1.5c-0.7-0.1-1.4-0.3-2.1-0.4c-4.3-0.9-7.2-0.1-9.1,1.8
				c-1.4,1.3-3.2,4.1-3.4,10.3c0,0.5,0.1,1.1,0.1,1.6c0,4.3,0.5,9.3,1.2,14.2c0,0.4,0.1,0.7,0.1,1.1c0-0.1,0-0.2,0-0.2
				c0.5,3.9,1.1,7.7,1.5,11.3c0,0.4,0.1,0.8,0.1,1.3c0.1,0.7,0.1,1.4,0.1,2.1c0,0.2,0,0.4,0,0.6c0,0.5,0,1,0,1.5c0,0.2,0,0.4,0,0.6
				c0,0.6,0,1.3-0.1,1.9c0,0.2,0,0.4,0,0.6c0,0.4-0.1,0.9-0.1,1.3c0,0.3-0.1,0.6-0.1,0.9c0,0.4-0.1,0.8-0.2,1.2
				c0,0.3-0.1,0.5-0.1,0.8c-0.1,0.6-0.2,1.2-0.3,1.7c-0.1,0.3-0.1,0.6-0.2,0.8c-0.1,0.3-0.1,0.7-0.2,1c-0.1,0.3-0.1,0.6-0.2,0.9
				c-0.1,0.4-0.2,0.7-0.3,1.1c-0.1,0.3-0.2,0.6-0.2,0.9c-0.1,0.5-0.3,0.9-0.4,1.4c-0.1,0.2-0.2,0.5-0.2,0.7c-0.1,0.3-0.2,0.7-0.3,1
				c-0.1,0.2-0.1,0.5-0.2,0.7c-0.2,0.5-0.3,0.9-0.5,1.4c-0.1,0.2-0.1,0.3-0.2,0.5c-0.2,0.4-0.3,0.8-0.5,1.2
				c-0.1,0.2-0.1,0.4-0.2,0.5c-0.1,0.3-0.3,0.7-0.4,1c-0.1,0.1-0.1,0.3-0.2,0.4c-0.2,0.4-0.3,0.8-0.5,1.2
				c-31.7-15.4-61-28.1-66.5-24.5c-11.8,7.7,28.9,40.7,34,44.8c0.1,0.1,0.1,0.2,0.2,0.3c-8.7,14.9-20.6,42.4-9.1,67.9
				c6.5,14.4,17.9,22.4,28.7,28.6c2.8,2,5.5,3.7,7.5,4.7l-0.2-0.6c7.8,4.2,38.9,19.2,74.8,16.5c41.7-2.3,66.5-27.3,79.7-47
				c5.7-7.4,9.3-15,11.5-21.5c0.4-1,0.8-2,1.2-2.9l-0.2-0.1c1.4-4.8,2.1-8.7,2.5-11.2c0-0.6,0.1-1.2,0.2-1.8
				c3.3,0.9,96.5,26.4,111,31.3c14.8,5,18.4,0.1,18.4,0.1l6.3-3.4c2.8-1.4,5.8-3.1,9-4.9l2.1-1.1h-0.1
				c42.9-25.6,116.6-86.3,126.4-94.4c2.8-2.2,5.5-4.4,8.3-6.5c4.9-3.9,11.1-9,15.7-16.7c2.7-2.8,5.8-6.4,8.2-12.1
				c1.9-4.5,3.1-9.3,3.5-14.1c-0.4-2.6-0.8-5.3-1.3-7.9c-3.2-31.1-33.6-67.4-38.6-73.2c-0.2-0.2-0.3-0.4-0.5-0.7
				c0.3-0.4,0.5-0.9,0.8-1.3l11.8-13.2c1.3-1.2,2.6-2.5,4-3.7c0.6-0.4,1.2-0.7,1.7-1.1c0.3-0.2,0.5-0.3,0.8-0.5
				c0.8-0.5,1.5-1,2.3-1.5c0.2-0.2,0.5-0.3,0.7-0.5c1.9-1.3,3.7-2.6,5.4-3.8c0.2-0.1,0.3-0.2,0.5-0.3c0.7-0.5,1.4-1,2.1-1.6
				c0.1-0.1,0.3-0.2,0.4-0.3c1.6-1.2,3.1-2.5,4.5-3.7c0.1-0.1,0.2-0.1,0.2-0.2c0.6-0.5,1.2-1.1,1.8-1.6c0.1-0.1,0.2-0.2,0.3-0.3
				c1.3-1.2,2.5-2.4,3.6-3.5l0.1-0.1c0.5-0.5,1-1.1,1.5-1.6c0.1-0.1,0.1-0.1,0.2-0.2c1.5-1.7,2.8-3.3,3.9-4.9l0.1-0.1
				c1.1-1.6,2.1-3.1,2.9-4.6c0,0,0,0,0-0.1l0,0c3.5-3.9,4.2-8.6,3.2-13.6c0.2,0.1,0.3,0.1,0.5,0.2c29.6,11.1,76.6-51.8,149.7-146.1
				c98.4-126.8,205-260.1,198.5-251.6l31.3-38.8c6.1-7.4,11.2-13.6,15-18.4c1.8-1.8,5.6-5.9,8.9-11.1c4.8-6.3,6.3-11.4,6.1-15.4
				c0.4-4.5-0.8-8.9-4.7-12.7c1.4-0.3,3.1-0.8,5-1.5c0,0,0.1,0,0.1-0.1c0.8-0.3,1.6-0.6,2.4-1c0.1,0,0.1-0.1,0.2-0.1
				c0.5-0.2,1-0.4,1.5-0.7c0.1,0,0.2-0.1,0.3-0.1c0.8-0.4,1.7-0.9,2.6-1.4c0.1-0.1,0.3-0.2,0.4-0.3c0.4-0.3,0.9-0.5,1.3-0.8
				c0.2-0.1,0.3-0.2,0.5-0.3c0.3-0.2,0.5-0.3,0.8-0.5c0.2-0.1,0.4-0.3,0.6-0.4c0.4-0.3,0.8-0.6,1.2-0.8c0.2-0.2,0.4-0.3,0.7-0.5
				c0.3-0.2,0.5-0.4,0.8-0.6c0.4-0.3,0.8-0.6,1.2-0.9c0.3-0.2,0.5-0.4,0.8-0.6c0.3-0.2,0.6-0.5,0.8-0.7c0.3-0.3,0.7-0.6,1-0.9
				c0.3-0.2,0.6-0.5,0.8-0.7c6.4-5.4,10.4-10.5,10.4-10.5c2.2-2.8,4.3-5.6,6.2-8.5c0.6-0.8,1.2-1.6,1.7-2.5c0.1-0.2,0.2-0.3,0.3-0.5
				c0.5-0.8,1.1-1.6,1.6-2.4c0.1-0.2,0.3-0.4,0.4-0.6c0.6-0.9,1.2-1.9,1.8-2.9c0.1-0.2,0.3-0.4,0.4-0.7c0.6-1,1.3-2.1,1.9-3.2
				c0.4-0.8,0.9-1.5,1.3-2.3c3.4-6.1,6.4-12.3,9.1-18.5c0.7-1.6,1.3-3.1,1.9-4.7c3.4-8.6,6-17.3,7.9-25.6c0.9-3.8,1.6-7.6,2.2-11.2
				c0.5-2.9,0.9-5.8,1.1-8.6c0.5-4.9,0.7-9.6,0.7-14C1087.4,76,1087.3,75.4,1087.3,74.8z M296.1,654.8L296.1,654.8
				c0,0.1-0.3,0.7-0.7,1.6c-0.1-0.6-0.1-1.2-0.1-1.9C295.8,654.7,296,654.7,296.1,654.8z M294.4,677.7c-9.8,5.2-19.2,11.1-28.2,17.7
				c0.5-2,10.4-44.4,20.7-42.5c3.7,0.7,5.9,1.1,7.3,1.4c-0.9,3.5-1.3,7.5-0.7,11.7c0.6,3.8,2.3,6.9,4.6,9.4
				C297.1,676,295.8,676.8,294.4,677.7z"/>
		</g>
		<g id="Capa_1_1_">
			<title>giro_02</title>
			<path class="st1" d="M146.1,753.2c-9.6,24.1,21.7,64.9,28.3,73.1c-3.9,4.9-6.7,9.9-8.7,12.9c-6,8.9-8.2,8-26.6,4.2
				s-11.2,23.2-9.4,41.3c1.2,12.3-3.6,24.5-6.8,31c-16.1-12.5-40.1,36.4-39.7,64.6c0.4,30.9,73.7,55.3,109.8,54.5
				s84.4-12.9,94.7-65.1c0.6-3.1,1.3-5.9,2-8.5l0.6,0.7c0,0,59.2,16.6,90.2,24.8c31,8.3,48.3,3.4,48.3,3.4 M428.9,990
				c0,0,132.2-92.8,160.1-126.7S556.8,762,556.8,762l15.4-17.3c37.2-23,39.4-39.8,36.6-48.5c26.7,9.9,47.1-25.6,47.1-25.6
				S996,256.4,1012.6,235.7s-0.7-28.8-0.7-28.8l-0.3-0.2c7.4-0.6,28.8-6.1,51.5-45c28.1-48.2,30.7-107.1,13.2-118.6
				s-29.9-11.9-55.4-1.1c0,0-1.6-28.5-31.9-19.6c-26.9,8-85.7,56-88.9,86.5c-2.4,1.7-3.1,1.9-3.3,1.7c-0.4-0.3,0.8-1.8,0.7-2
				c-0.5-0.7-29.6,14.3-164.3,114.7c0,0-56.7,42.2-233.7,198.4c-12.5,11-38.6,34.5-55.9,73.4c-5.2,11.6-9.2,23.7-12,36.1
				c-11.1,1.4-19.9,19.8-23.9,25.3c-5.3,7.1-47.6,48.1-47.6,48.1s-2.3-1.4-6.1-3.6c-1.9-1.5-3.5-2.9-3.9-3.9c-0.2-0.5-1.3-0.5-2.9,0
				c-18-10.4-49.3-28.4-59.9-33.4c-15.1-7.2-32.5-13.5-65.1,13.6c-23,19.2-46.1,85.8-61.4,132.7 M266.2,695.4
				c0,0,10.2-44.5,20.7-42.5c7.4,1.4,8.9,1.8,9.2,1.9v0.1c-1.4,2.8-2.1,5.8-2,8.9c-0.3,2.1,0.5,4.2,1.9,5.6c0.8,1,1.7,1.9,2.8,2.5
				c0.4,0.3,0.7,0.5,1.1,0.8c0.6,0.4,1.2,0.8,1.7,1.2C289.3,680.1,277.4,687.2,266.2,695.4z"/>
			<path class="st2" d="M840.7,253.1C952,353.2,1006,509.8,968.1,665.3C913,890.8,685.7,1029,460.1,974
				c-79-19.1-150.6-60.8-206.2-119.9"/>
			<path class="st3" d="M254,854c-94.2-100.1-137.5-244.5-102.5-387.9c55-225.5,282.4-363.7,507.9-308.7
				c67.4,16.3,129.7,49.2,181.3,95.6"/>
			<path class="st1" d="M1076.4,43.1c-17.5-11.5-29.9-11.9-55.4-1.1c0,0-1.6-28.5-31.9-19.6c-26.9,8-85.7,56-88.9,86.5
				c-2.4,1.7-3.1,1.9-3.3,1.7c-0.4-0.3,0.8-1.8,0.7-2c-0.5-0.7-29.6,14.2-164.4,114.6c0,0-56.7,42.2-233.7,198.4
				c-12.5,11-38.6,34.5-55.9,73.4c-5.2,11.6-9.2,23.7-12,36.1c-11.1,1.4-19.9,19.8-23.9,25.3c-5.3,7.1-47.6,48.1-47.6,48.1
				s-2.3-1.4-6.1-3.6c-1.9-1.5-3.5-2.9-3.9-3.9c-0.2-0.5-1.3-0.5-2.9,0c-18-10.4-49.3-28.4-59.9-33.4c-15.1-7.2-32.5-13.5-65.1,13.6
				c-32.6,27.2-65.2,149.1-75.9,176c-9.6,24.1,21.7,64.9,28.3,73.1c-3.9,4.9-6.7,9.9-8.7,12.9c-6,8.9-8.2,8-26.6,4.2
				s-11.2,23.2-9.4,41.3c1.2,12.3-3.6,24.5-6.8,31C107,903.2,83,952.1,83.4,980.3c0.4,30.9,73.7,55.3,109.8,54.5
				s84.4-12.9,94.7-65.1c0.6-3.1,1.3-5.9,2-8.5l0.6,0.7c0,0,59.2,16.6,90.2,24.8c31,8.3,48.3,3.4,48.3,3.4s132.1-92.8,160-126.8
				S556.8,762,556.8,762l15.4-17.3c37.2-23,39.4-39.8,36.6-48.5c26.7,9.9,47.1-25.6,47.1-25.6S996,256.4,1012.6,235.7
				s-0.7-28.8-0.7-28.8l-0.3-0.2c7.4-0.6,28.8-6.1,51.5-45C1091.3,113.5,1093.8,54.5,1076.4,43.1z M286.9,652.9
				c7.4,1.4,8.9,1.8,9.2,1.9v0.1c-1.4,2.8-2.1,5.8-2,8.9c-0.3,2.1,0.5,4.2,1.9,5.6c0.8,1,1.7,1.9,2.8,2.5c0.4,0.3,0.7,0.5,1.1,0.8
				c0.6,0.4,1.2,0.8,1.7,1.2c-12.4,6.1-24.3,13.3-35.5,21.5C266.2,695.4,276.4,650.9,286.9,652.9z"/>
			<path class="st4" d="M1008.9,206.7c0,0,26.1,3.1,54.2-45.1s30.7-107.1,13.2-118.6s-29.9-11.9-55.4-1.1c0,0-1.6-28.5-31.9-19.6
				c-30.4,9-101.3,69-87.2,97.3C915.8,148,964.7,199.9,1008.9,206.7z"/>
			<path class="st5" d="M430.4,536.1c2.8-14.1,7.2-27.8,13-41c17.3-39,43.4-62.5,55.9-73.4C676.3,265.5,733,223.3,733,223.3
				c134.8-100.4,163.8-115.4,164.4-114.6c0.1,0.2-1,1.6-0.7,2c0.4,0.3,1,0,3.8-2c0,0,35.1,52.6,48.6,60.6
				c13.5,7.9,16.9,0.3,62.7,37.7c0,0,17.4,8.1,0.7,28.8c-16.5,20.6-356.6,435-356.6,435s-29.6,51.6-64.3,12.9
				S430.4,536.1,430.4,536.1z"/>
			<path class="st6" d="M556.8,762.1l15.4-17.3c56.2-34.7,32.5-55.3,32.5-55.3c-43.6-63.3-146.6-139-162.5-154.1
				s-29.4,13.9-34.7,21.1c-5.3,7.1-47.6,48.1-47.6,48.1s-57.8-33.8-72.9-41s-32.5-13.5-65.1,13.6c-32.6,27.2-65.1,149.1-75.9,176
				s29.6,74.6,29.6,74.6l114.8,134c0,0,59.2,16.6,90.2,24.8c31,8.3,48.3,3.4,48.3,3.4c24.4-16.7,88.9-61.4,141.2-103.1
				c6.3-5,14.6-11.8,19-23.5C589,863.3,596.9,842.1,556.8,762.1z M266.2,695.4c0,0,10.2-44.5,20.7-42.5c10.5,1.9,9.2,1.9,9.2,1.9
				s-7.6,14.4,6.4,18.8C289.8,679.7,277.6,687,266.2,695.4L266.2,695.4z"/>
			<path class="st7" d="M120.3,920.4c0,0,11.2-17.7,9.4-35.8s-9.1-45.1,9.4-41.3s20.6,4.7,26.6-4.2s19.4-37.1,49-20.9
				c29.6,16.2,36.7,26.6,38.9,27.8c2.2,1.2,4.8,5.6,11.3-5.2s34.5,11.9,40.5,24.1c6,12.2,17.6,36.8,5.5,47
				c-12.2,10.2-66.9,85.7-66.9,85.7S94.9,965.1,120.3,920.4z"/>
			<path class="st8" d="M127.4,921.2c0,0,5,26.1,27.3,29.8s36.3,4.4,47.8-25.7c0,0,17.5-23.4,27.9-17.8c10.4,5.6,4.3,14.9-7.1,21.8
				c-11.4,6.9-23.6,23-8.1,30.2s43.3,12.3,63.5-41.9c0,0,19.7-32.5,32.8-8.3c13.1,24.3-13.4,8.1-23.7,60.3
				c-10.3,52.1-58.6,64.2-94.7,65.1c-36.2,0.9-109.4-23.6-109.8-54.5C82.7,949.3,111.6,893.4,127.4,921.2z"/>
			<path class="st7" d="M432.3,704.5c0,0-34.1,19-57.4-19.8c-0.5-4.9-0.6-9.8-0.3-14.7c0.9-8.2,3.6-16.1,7.9-23.1
				c1.4-2.3,5.9-9,25-21.8c15.9-10.6,23.8-15.9,29.7-15.9c23.5,0.1,45.1,36.8,38.9,49.9c-0.8,1.7-2,3.2-3.4,4.4
				c-5.5,4.2-11.8-0.1-20.9,2.7c-3,0.9-5.8,2.4-8.2,4.4C436.6,676.3,435,685.2,432.3,704.5z"/>
			<path class="st7" d="M317.5,624c0,0-21.2,14.1-21.1,26.4c0.1,12.2-7.3,14.7,3.6,22.4c10.9,7.6,23.5,10.7,30.7,22.5
				c7.1,11.7,40.5,7.7,39.5-10c-0.9-17.7,8.1-46,12.4-47.1s3.7-17.8-19.6-31c0,0-11.7-6.9-13.1-10.1
				C348.5,593.9,313.5,611.2,317.5,624z"/>
			<path class="st9" d="M982.6,187c13.1-0.3,40.1-3.1,61.1-22.5c20.5-19,26.8-46,32-68.1c1.8-7.6,3.1-15.4,3.9-23.2
				c1.3-16-0.6-26.4,0.9-26.7s4.9,8.9,6.3,18.7c0.5,3.2,1.1,9.8-1,25.6c-1.1,8.9-2.8,17.7-5,26.4c-2.7,10-10.6,38.5-32.1,65.6
				c0,0-12.4,15.7-28.2,21.1c-2.5,0.9-5.3,1.3-8,1.2c-4.8-0.3-8.2-2.5-11.2-4.4C996.5,197.5,990.1,193,982.6,187z"/>
			<path class="st9" d="M936,156c2.9-0.6,5.7-1.6,8.4-2.8c14.8-7,20.8-21.5,26.4-33.4c7.9-16.9,16.8-33.3,26.7-49.1
				c-9.3,22-16.6,44.8-21.9,68.1c-2.9,13.1-6.2,31.8-18.2,35.8c-3.5,1.1-7.3,1-10.8-0.2"/>
			<path class="st10" d="M895.5,112.6c4.8-11.6,11-22.5,18.4-32.6c13.2-17.8,29.9-32.6,49.1-43.6c3.3-3.1,22.6-21.1,41.9-15.6
				c2.1,0.6,4.1,1.4,6,2.5c6.2,4.5,9.6,11.8,9.3,19.4c-3.5-5.1-8.8-10.9-16.5-12.8c-18.4-4.4-37.2,17.7-54.3,37.8
				c-14.7,17.2-23.3,27.6-25.5,44.5c-2.2,16.1,2.7,29.5,6.1,36.8"/>
			<path class="st10" d="M958.5,172.7c0.9-3.8,2.2-9.6,4-16.5c5.6-21.2,14.1-52.4,34.4-85c13.4-21.6,21.5-26.8,24.1-28.4
				c4.3-2.6,24-13.9,44.1-6c4.7,1.9,9,4.6,12.7,8c-7.8-1.9-15.9-2.2-23.9-0.9c-44.7,7.3-79.4,66.9-74.5,117.5
				c0.9,8.8,2.9,17.4,6,25.6L958.5,172.7z"/>
			<path class="st11" d="M430.5,534.2c0,0,6.4-62.8,97.5-138.9s317.3-270.1,369.6-284.7c0,0,2.2-6.1,18.8,23.1
				c0,0-17.7-24.3-46.3,7.9S634.9,326.7,527.2,429.1c0,0-89.8,71.2-49.8,134.3"/>
			<path class="st11" d="M616.6,483.5l333.6-312.7l23.8,14.7c0,0-17.7-12.4-32.9,7.5S668.4,459.1,616.6,483.5z"/>
			<path class="st12" d="M507.2,598c-0.6,1,38.4,19.2,70.3,58c22.3,27.2,20.8,39.8,32.7,44.2c29.6,11.1,76.6-51.8,149.7-146.1
				c98.4-126.8,205-260.1,198.5-251.6l45.4-56.2c0,0,31.7-29.9,6.1-44s-42.3-29.4-52.8-29.4c-0.4,0-1.2,0-1.4,0.4
				c-1.7,3.3,40.1,16.2,46.2,40.2c1.1,4.2,2.7,15.1-22.9,50.5c-16.4,22.7-24.7,34.1-44,50.6c-26.8,22.8-100,100.7-274.9,302.2
				c-13.4,8.9-31.5,17.8-53.5,19.3C553.1,639.6,508,596.8,507.2,598z"/>
			<path class="st13" d="M285.9,962.2c0,0,102.9,26.9,120.6,36.5c17.7,9.5,156.5-106.1,156.5-106.1s-114.4,79.2-153,77.6
				s-85.4-42.4-114.8-29.9"/>
			<path class="st13" d="M174.6,827.4c0,0-41.4-50.8-26.9-84.1s16.9-39.7,16.9-39.7s-21.7,68.2,29.2,114.2"/>
			<path class="st13" d="M543.2,745c0,0,55.3-37.1,43.8-56s-16.6-23.7-12.5-28.9l2.3-3c0,0,47.1,38.5,29.3,56.9
				s-53.7,44.9-50.5,54.3L543.2,745z"/>
			<path class="st14" d="M258.8,853.5c3.2,8.2,5.2,16.9,5.9,25.7c0.4,5.6,0.3,11.8,3.6,19.2c1.5,3.4,3.5,6.6,6,9.5
				c1.2,0.8,2.2,1.8,3,3c0.9,1.3,1.5,2.8,1.6,4.3c0.3,4,0,1,0,1c0.6-6-0.6-10-1.8-12.6c-0.9-1.8-1.7-2.8-2.4-5
				c-0.9-3.1-0.9-6.4,0-9.6c2-8.9,5.2-22.7-0.1-31.3c-1.5-2.4-3.2-3.7-6.8-9.4c-1.7-2.6-2.9-4.8-3.6-6.3c-3.1,5.4-4.9,6.7-6.1,6.8
				C255.4,849.1,258.8,853.5,258.8,853.5z"/>
			<path class="st14" d="M92.4,1000.1c-4.1-4.6-7.2-10.1-8.9-16.1c-4.3-14.9,1.7-27.6,8.6-42.4c5.3-11.2,14-29.8,24.1-29.1
				c2.8,0.2,4.8,2.1,8.7,5.8c12.7,12.1,11.9,21.1,20.4,27.5c9,6.8,20.8,5.1,24.6,4.6c20.8-3,30.6-22,31.5-23.9
				c0,0-8.7,34.3-35.8,31.5s-33.8-11-40.9-13.1c-8.5-2.5-17.2,0.9-21.6,3.6C90.3,956.1,84.6,977.6,92.4,1000.1z"/>
			<path class="st15" d="M208.2,949.5c1.1,1.7,8.3,12.2,21.9,14c17,2.3,28.2-10.9,28.9-11.7c0,0,13.3-14.5,16-25.6
				c0.3,18.1-8.4,34.2-22.5,41.1c-10.5,5.1-28.3,7.1-38.1-3.4C210,959.1,208.7,953.2,208.2,949.5z"/>
			<path class="st16" d="M122,1017.9c13,6.4,26.9,11,41.2,13.7c25.9,4.7,52.5,3.1,77.7-4.7c9.1-3.2,17.4-8.2,24.6-14.7
				c17.9-16.4,22-37.1,23-44.4c0.3-4,1-8,2.2-11.9c3.1-9.9,8.9-18.7,16.8-25.4c1.4-0.5,2.7-1.2,3.9-2.2c4.3-3.8,4-9.6,4-10.5
				c-3.5,1.5-6.7,3.4-9.8,5.6c-1.5,1.1-5.6,5.2-11.4,12.2c-7.4,8.9-6.7,15-12.2,27.6c0,0-4.4,10-14.9,23.7
				c-23.8,31-73.7,36.5-86.8,37.5C160.5,1025.9,140.8,1023.7,122,1017.9z"/>
			<path class="st14" d="M210.8,915.9c2.8-6,8.3-9.8,13.8-9.6c6.2,0.2,12.1,5.5,11.7,8.8c0,0,0,0.5-2.3,4.7l0,0
				C234.1,919.9,231,905.8,210.8,915.9z"/>
			<path class="st14" d="M280.3,915.9c0,0,13.9-21.7,25.3-13.5c0,0,7.1,5.3,6.9,10.1C312.5,912.5,296.7,897.6,280.3,915.9z"/>
			<path class="st17" d="M126.6,855.5c0.3-7.5,2.8-10,4.3-11c3.3-2.1,8.3-1.1,18.5,0.8c4.6,0.9,5.9,1.4,8.1,0.8
				c1.6-0.4,4.5-1.7,9.1-8.4c3.7-5.3,4.5-8.3,6.1-11.1c5.9-10.2,20-12.6,22.3-13c11.6-2,20.3,3.1,36,12.5
				c15.5,9.2,27.3,17.2,35.2,32.6c3,5.8,4.6,12.9,4.3,22.7c0,0-5.4,14.5-3.9,18.9c0,0-3.1-2.2-3.8-19s-17.7-31.6-17.7-31.6
				S224,838,221.9,831.6s-18-13.9-39.9-2.4c-5.9,16.8-12.9,21.5-18.1,22.8c-11.1,2.7-22.1-8.3-28.7-3c-2,1.6-2.9,4.5-4.7,10.3
				c-1.3,4.2-2.1,8.6-2.4,13C127.6,866.7,127.1,861.1,126.6,855.5z"/>
			<path class="st17" d="M265.5,839.6c0,0,7.7-9.1,29.3,12.4c21.6,21.6,22.6,48.4,20.2,53.1C315,905.1,304.7,853.7,265.5,839.6z"/>
			<path class="st18" d="M163.8,700.5C171,678,178,658.6,184.1,643c9-23.3,16.5-40,29.8-56.9c5.5-7,9.8-11.3,14.8-15.1
				c4.9-3.9,19.7-15.2,37.9-15.5c8.4-0.1,14.6,1.8,50.3,23.3c13.3,8,23.8,14.3,29.5,17.7c-4.1,2.5-7.5,4.3-9.9,5.5
				c-6.3,3.2-7.7,3.4-10.2,5.7c-2.8,2.7-3.4,4.9-5.5,5.2c-2.4,0.3-4.6-1.9-6.2-3.8c-16.8-8.8-31.1-10.5-40.7-10.4
				C228.6,599.4,185,640,163.8,700.5z"/>
			<path class="st18" d="M359.2,604.1c2.2-2.3,5.6-5.8,9.9-9.9c6.5-6.1,10.1-9,13.7-12.2c7.8-7,14.7-14.8,20.7-23.3
				c8.2-11.4,9.3-16.8,17.6-22.5c3.2-2.2,6.7-3.9,10.4-5.2c14.5-5,50.2,22.6,87.5,68.2c17.7,14.9,34.6,30.8,50.6,47.5
				c10.7,11.2,16.8,18.5,16.3,19S580,662,580,662l0,0c-33.5-26.7-58.8-47.1-73.6-59.2c-36.7-29.7-49-40.1-65.1-37.2
				c-12.8,2.3-35,14.1-49.5,32.8c-5,6.4-10.5,15.5-18.5,15.4C367.3,613.8,362.4,608.6,359.2,604.1z"/>
			<path class="st18" d="M437.3,675.8c4.7-4.6,10.4-8.1,16.7-10.1c8.9-2.7,24-3.7,24.3-7v-0.1c1.4-1.1,49.5,63.8,94.9,125.6
				c13,17.6,21.3,38.1,24.2,59.8c-0.4,4.9-1.5,9.6-3.5,14.1c-4.6,10.6-11.2,13.8-14,18.7c-0.1,0.2-0.4,0.7-0.6,0.6
				c-1.6-0.4,3-27.2-24.7-71.8c-30.3-48.8-63.3-106.3-94-118.1c0,0-7.5-5.3-27.2,11.1C434.7,691,436,683.4,437.3,675.8z"/>
			<path class="st13" d="M301.1,673.4c0,0-51.3,31.8-55.7,45.2c-4.5,13.4,10.5,3.8,13.7-1.4c3.2-5.2,44-40.6,55.6-28.8
				c11.6,11.9,27.1,14.4,27.1,14.4s-19.4-13.8-20.4-16C320.3,684.7,311.6,677.1,301.1,673.4z"/>
			<path class="st13" d="M425.6,708.1c0,0,16.6,42.9,23.5,46.9s39.4,66.8,2.3,99.8c0,0-1.6,12.9,13.1,0.9
				c14.7-12.1,31.3-43,18.8-62.8c-12.4-19.9-49.9-91.4-49.9-91.4L425.6,708.1z"/>
			<path class="st17" d="M324.6,610.5c0,0,19.1-19.2,28.4-11.1c9.3,8.1,14.9,14.5,18.4,14.9s18.2,13.9,11.8,23.5
				c-3.9,5.9-6.9,12.3-9.1,19c0,0,8.6-25.8-3-24.6s-30.9-22.9-27-24.1C348,606.7,329.9,601.9,324.6,610.5z"/>
			<path class="st17" d="M376,660c0.3-1.3,2.7-22.3,57.8-50.3c0,0,11.7-9.3,37,23.9c0,0-9.4-24.4-40.9-4.1
				c-31.5,20.2-57.6,42.3-55,55.5"/>
			<path class="st14" d="M302.4,638.8c-2.4,2.9-11,13.9-8.9,27.1c3,18.8,31.1,18.4,37.8,29.5c7.7,12.7,41.4,3.8,38.8-9.5
				c0,0-2.8,8.5-9.7,10.1c-5.5,1.3-10.5-2.3-14.8-5.6c-14.9-11.4-15.1-24.8-24.3-25.8c-1.1-0.1-0.6,0.1-11.9,0.7
				c-3.3,0.2-6,0.3-7.7,0.4c-2.1-1.3-3.9-3.1-5-5.3C293.6,654.3,295.8,645.7,302.4,638.8z"/>
			<path class="st14" d="M375.7,686.8c0,0,12.2,21.4,31.8,22.3c19.6,1,26.8-8.2,27.6-9.5s-3.8-11.7,3.5-25.9c0,0-12.6,13.6-13,21.2
				S402.8,710.8,375.7,686.8z"/>
			<path class="st13" d="M289.3,959.2l-0.8,6.8c0,0,96.3,26.3,111.1,31.3c14.8,5,18.4,0.1,18.4,0.1l17.4-9.5"/>
		</g>
		<g id="Capa_2_1_">
			<path class="st5" d="M286.2,979c-4.8,12.3-17.5,39.2-46.4,56.8c-54.6,33.2-115,1.4-122.1-2.5c-12.4-6.8-27.1-14.9-34.8-32
				c-16.2-35.9,14.1-76,16.3-78.8"/>
			<path class="st5" d="M92.2,933.5c0,0-47.1-37-34.5-45.2s146.2,66.8,155,68.4"/>
			<path class="st19" d="M293.7,717.7l16.1,10.8c2.7,1.8,3.5,5.6,1.7,8.3L291.1,767c-1.8,2.7-5.6,3.5-8.3,1.7l-16.1-10.8
				c-2.7-1.8-3.5-5.6-1.7-8.3l20.4-30.4C287.3,716.6,291,715.8,293.7,717.7z"/>
			<path class="st19" d="M275.7,735.5c0,0-6.2,10.1-14.3-0.1c-8-10.2-21.3-33.9-21.3-33.9s-5.7-5.3-5.7,3.5
				c0,8.8,9.9,38.8,33.1,53.4"/>
			
				<rect x="309.3" y="755.5" transform="matrix(0.5527 -0.8334 0.8334 0.5527 -493.1833 617.5447)" class="st19" width="38.8" height="25.4"/>
			<path class="st19" d="M317.4,776.5c0,0-6.4-20.4-31.4-6.7l25.7-39.6c0,0-1.7,25.4,19.1,25.4"/>
			<path class="st20" d="M294.5,718.5c5.1-11.5,10-23,15-34.5c3,0.6,8,2.1,13.1,5.8c3.5,2.6,5.8,5.4,7.4,7.7
				c-7.7,10.1-15.2,20.1-22.8,30.2"/>
		</g>
		<g id="Capa_3">
			<path class="st21" d="M309.7,684.2c0,0,10.1,0.8,20,13.2l-3,4.1c0,0-7.2-11.7-19.6-10.8L309.7,684.2z"/>
			<path class="st22" d="M294.8,718.8l12.2,8.9l0.5-0.9c0,0,6,3,4.1,8.4c-2.3-3.3-4.8-5-6.5-6c-4.9-2.7-8.6-1.7-12.9-4.8
				c-2.5-1.7-3.9-3.9-4.8-5.4c1.1-1.1,2.2-1.5,2.7-1.6c1.5-0.4,3.8-0.4,4.5,0.9C294.8,718.3,294.8,718.6,294.8,718.8z"/>
			<path class="st22" d="M313.4,742.5c0,0,2.3,9.8,8.2,10.6C321.6,753.2,313.3,755.5,313.4,742.5z"/>
			<path class="st22" d="M324.1,748.4l1.6-2.3l19.9,13.3c0,0-19.8-13-23-8.7"/>
			<path class="st22" d="M272.4,740.3c0,0-3.9,3-9.1-1.2c-5.2-4.2-21.6-34.2-21.6-34.2s-0.6-0.6-1.5-1.2c-0.5-0.4-1.7-0.9-2.6-0.2
				c-0.6,0.4-1.1,1.2-0.9,2c0.4,1.1,2.3,1.1,3.6,1.6c3.6,1.1,4.8,6.4,5.9,10.1c1.7,5.9,3.7,12.8,7.6,18.2
				c4.2,5.8,11.7,11.2,15.9,9.1C271.3,743.5,272,741.8,272.4,740.3z"/>
			<g>
				<path class="st23" d="M238.7,709.4c1.1,3.3,2.3,6.8,3.8,10c0.5,1,2.6,6.1,4.5,9.6c2.1,3.7,6.1,9.8,14.4,16.1
					c1.2,0.7,2.6,1.4,3.8,2.1c1.1,1.2,2.7,2.7,4.8,4.2c2.7,2,3.8,2,6.5,4.1c2.6,2,3.8,2.8,4.5,4.5c1.1,2.5,0.7,4.4,2.5,5.9
					c0.9,0.9,2.1,1.4,2.1,1.4c0.6,0.4,1.4,0.5,2.1,0.6c0.7,0,1.4-0.1,2-0.4s1.2-0.9,1.6-1.2l0.2-0.4l0.2-0.1c1.7-0.6,3.4-1,5.3-1.4
					c1.7-0.2,3.6-0.5,5.4-0.4c1.8,0.1,3.7,0.5,5.4,1.2c1.7,0.7,3.3,1.8,4.5,3.3l0.5,0.6l-0.4,0.6l-4.8,7.6l-0.2-1.4
					c3,0.5,8.6,2,13.9,6.5c3,2.5,4.8,5.2,6,7.1c-0.2,0.4-0.4,0.6-0.6,1l-20.3-13l-0.7-0.5l0.5-0.9l4.5-7.7l0.1,1.2
					c-1-1.2-2.3-2.1-3.8-2.7c-1.5-0.6-3.1-0.9-4.7-0.9c-1.6-0.1-3.3,0.1-4.9,0.4c-1.6,0.2-3.3,0.7-4.8,1.4l0.5-0.4
					c-0.7,1-1.5,1.6-2.6,2.1c-1,0.5-2.1,0.7-3.2,0.7c-1.1,0-2.2-0.4-3.1-0.9c-1-0.5-1.6-1-2.5-1.5c-3-2-6-3.9-9-6
					c-3-2-5.9-4.1-8.7-6.3c-1.5-1.1-2.8-2.2-4.3-3.3c-0.7-0.6-1.4-1.1-2.1-1.8l-1.8-2.1c-4.7-5.7-8.5-11.8-11.7-18.3
					c-2.1-4.2-3.2-7-4.1-10C239.2,715.9,238.8,712.1,238.7,709.4z"/>
			</g>
			<g>
				<path class="st23" d="M312,768.3c-0.1,0,0.1-0.1,0.1-0.1c0.1,0,0.1-0.1,0.2-0.1c0.2-0.1,0.4-0.2,0.6-0.5
					c0.4-0.4,0.7-0.7,1.1-1.1c0.7-0.9,1.5-1.7,2.2-2.6c0.7-0.9,1.5-1.8,2.1-2.8c0.4-0.5,0.7-1,1-1.5c0.4-0.5,0.6-1,0.7-1.6l1,0.5
					c-0.5,0.5-0.7,1-1,1.5l-0.7,1.6c-0.5,1.1-1.1,2.2-1.7,3.2c-0.6,1.1-1.4,2.1-2.2,3c-0.5,0.5-1,0.9-1.6,1.2
					c-0.4,0.1-0.6,0.4-1,0.4c-0.2,0-0.4,0.1-0.6,0.1c-0.2,0-0.4,0-0.7-0.1L312,768.3z"/>
			</g>
			<g>
				<path class="st24" d="M93,933.9c-3.7,9.3-6.5,18.9-8.1,28.4s-1.8,19.1,0.4,27.8c1.1,4.4,2.8,8.5,5,12.3l1.8,2.8
					c0.7,0.9,1.3,1.7,2,2.6l2.2,2.5c0.7,0.8,1.6,1.5,2.3,2.3l0.6,0.6l0.1,0.1l0.1,0.1l0.4,0.3l1.4,1.2c1,0.8,1.9,1.6,2.8,2.4
					c1.9,1.6,3.6,3.4,5.4,5.1c3.5,3.6,6.7,7.4,9.9,11.8l-0.4,0.8c-0.7,0-1.4-0.1-2.1-0.2s-1.4-0.2-2-0.4c-0.7-0.1-1.3-0.3-2-0.5
					l-1.9-0.6c-2.5-0.9-4.9-1.9-7.2-3.1c-2.3-1.2-4.5-2.5-6.6-3.9c-1.1-0.7-2.1-1.4-3.1-2.2c-0.5-0.4-1-0.8-1.5-1.2l-0.4-0.3
					l-0.3-0.2c-0.1-0.1-0.1-0.1-0.2-0.2l-0.8-0.7c-1-1-2.1-2-3-3c-0.9-1.1-1.9-2.1-2.8-3.2c-0.8-1.1-1.7-2.3-2.5-3.4
					c-0.8-1.2-1.5-2.4-2.2-3.6c-2.7-4.9-4.6-10.3-5.5-15.8c-0.2-1.4-0.4-2.7-0.5-4.1c-0.1-1.4-0.2-2.7-0.3-4.1
					c0-2.7,0.1-5.4,0.3-8.1c0.6-5.3,1.7-10.5,3.4-15.5c1.6-5,3.7-9.7,6.1-14.3c2.4-4.5,5.2-8.9,8.5-12.8L93,933.9z"/>
			</g>
			<g>
				<path class="st24" d="M116.4,929.9c-2.7,6.7-4.7,13.6-5.8,20.5c-1.1,6.8-1.3,13.7,0.3,20c0.8,3.1,2,6.1,3.6,8.8l1.3,2
					c0.5,0.6,1,1.3,1.4,1.9l1.6,1.8c0.5,0.6,1.1,1.1,1.7,1.6l0.4,0.4l0.1,0.1h0.1l0.3,0.2l1,0.8c0.7,0.6,1.3,1.2,2,1.7
					c1.3,1.2,2.6,2.4,3.9,3.7c2.5,2.6,4.8,5.3,7.1,8.5l-0.3,0.6c-2.1-0.1-4-0.6-5.8-1.2c-1.8-0.6-3.5-1.4-5.2-2.3
					c-1.7-0.8-3.2-1.8-4.8-2.8c-0.8-0.5-1.5-1-2.2-1.6c-0.4-0.3-0.7-0.6-1.1-0.8l-0.3-0.2l-0.2-0.2c-0.1-0.1-0.1-0.1-0.2-0.1
					l-0.6-0.5c-0.7-0.7-1.5-1.4-2.2-2.2l-2-2.3c-0.6-0.8-1.2-1.6-1.8-2.5c-0.5-0.9-1.1-1.7-1.6-2.6c-2-3.6-3.3-7.4-4-11.4
					c-1.4-7.9-0.2-15.8,2.1-22.9c1.2-3.6,2.7-7,4.4-10.3c1.8-3.3,3.7-6.4,6.1-9.2L116.4,929.9z"/>
			</g>
			<g>
				<path class="st25" d="M286.1,979c-0.7,3.8-1.8,7.6-3.1,11.3c-0.6,1.9-1.4,3.7-2.1,5.5c-0.8,1.8-1.6,3.6-2.5,5.4
					c-3.5,7.1-7.8,13.8-12.9,20s-10.9,11.8-17.5,16.6c-1.7,1.2-3.3,2.3-5,3.4s-3.5,2.1-5.2,3.1c-0.9,0.5-1.8,1-2.7,1.4l-2.8,1.3
					c-1.8,0.9-3.7,1.7-5.6,2.4l-2.9,1.1c-1,0.3-1.9,0.6-2.9,0.9l-2.9,0.9c-1,0.3-1.9,0.6-2.9,0.8l-6,1.3c-2,0.3-4,0.6-6,0.8
					c-1,0.1-2,0.3-3,0.3l-3,0.1l-3,0.1c-1,0-2,0.1-3,0l-6-0.2l-1.5-0.1c-0.5,0-1-0.1-1.5-0.2l-3-0.4c-15.8-2-30.9-7-44.5-14.7
					c3.9,0.6,7.7,1.3,11.4,2c1.9,0.3,3.8,0.6,5.7,0.8c1.9,0.3,3.7,0.7,5.6,0.8l5.6,0.6l2.8,0.3c0.9,0.1,1.9,0.1,2.8,0.2
					c1.9,0.1,3.7,0.2,5.6,0.3c0.9,0.1,1.9,0.1,2.8,0.1h2.8c3.7,0.1,7.4-0.2,11-0.3c0.9,0,1.8-0.1,2.7-0.3l2.7-0.3l2.7-0.3
					c0.9-0.1,1.8-0.3,2.7-0.5c1.8-0.4,3.6-0.6,5.3-1l5.2-1.3c0.9-0.2,1.7-0.5,2.6-0.7l2.6-0.8c0.9-0.3,1.7-0.5,2.6-0.8l2.5-1
					c1.7-0.6,3.4-1.2,5-2.1l2.4-1.1l1.2-0.6c0.4-0.2,0.8-0.4,1.2-0.6c1.6-0.9,3.2-1.7,4.7-2.6c1.5-1,3.1-1.9,4.6-2.8
					c6-4,11.7-8.6,17-13.7c5.3-5.1,10.2-10.7,14.8-16.7c2.3-3,4.5-6.1,6.6-9.2C282.1,985.6,284.2,982.4,286.1,979z"/>
			</g>
			<path class="st25" d="M92.6,934.1c0,0,2.9-26.4,76.5,1.4c-13.3-6.6-26.7-13.2-40-19.8c-22.2-3.2-38.4-0.7-40.8,6.5
				C87.7,923.9,87.3,927.6,92.6,934.1z"/>
		</g>
	</g>
	<g id="Capa_2_2_">
		<path class="st20" d="M356.5,602.5c0-0.1,0.2-0.6,0.5-1.3c0.2-0.5,0.5-1,0.7-1.3l12-20.7c3.5-6.1,11.3-8.2,17.4-4.7l0,0
			c6.1,3.5,8.2,11.3,4.7,17.4l-12,20.7c-1,1.2-1.7,2.1-2.4,3c-0.5,0.6-1,1.3-1.6,1.2c-0.4-0.1-0.6-0.4-0.7-0.5
			c-0.4-0.5-1.4-1.1-3.5-2.2c-2.1-1.1-3.9-1.9-4.1-2C361.1,609.4,356,604.2,356.5,602.5z"/>
	</g>
	<g id="Capa_3_1_">
		<path class="st26" d="M356.4,602.4l13.8-24.5c3.3-4.1,8.5-5.9,13.4-4.7c6.3,1.6,8.6,7.5,8.8,8.1c-2-0.8-7.9-3-14.2-0.7
			c-6.1,2.2-9,7.2-11.4,11.3c-3.8,6.4-4.8,12.6-5,16.8C361.7,608.7,356.3,605.5,356.4,602.4z"/>
	</g>
</g>
<g id="Capa_3_2_">
</g>
<g id="Capa_4_1_">
	<path class="st27" d="M351.2,745.4l8.2-13.3l-4.4-5.6l-7.3-2.7l-10.4,11.9c0,0-2.1-14.3,3.3-19.6c5.4-5.3,13.4-3.9,13.4-3.9
		s13.8,6.3,15.4,14.9C369.5,727.1,373,737.2,351.2,745.4z"/>
	<path class="st27" d="M483.6,619.3c4.1,5,11.6,5.8,16.6,1.6c5-4.1,5.8-11.6,1.6-16.6s-11.6-5.8-16.6-1.6
		C480.2,606.8,479.5,614.3,483.6,619.3z M494.4,603.6l4.8,2.7l2,5.1l-1.8,5.2l-4.7,2.8l-5.4-0.9l-3.6-4.1l-0.1-5.5l3.4-4.3
		L494.4,603.6z"/>
	
		<rect x="415.5" y="587.6" transform="matrix(-0.6351 -0.7724 0.7724 -0.6351 175.1879 1420.0193)" class="st27" width="15" height="162.1"/>
</g>
<g id="Capa_5">
	<path class="st23" d="M366.8,705c0,0,15-6.7,21.3,2.4l6.9-5.3l-11.8-12"/>
	<g>
		<path class="st23" d="M356.2,714l-2.6-1.4l0.2,0.1c-2.3,0.5-4.4,1.2-6.4,2.1c-2,0.9-3.7,2-5.1,3.5c-1.4,1.5-2.4,3.3-3.1,5.4
			c-0.7,2.1-1.1,4.3-1.5,6.6l-1,0.1c-0.6-2.4-0.7-4.9-0.3-7.4c0.4-2.5,1.5-5.1,3.3-7.1c1.8-2,4.2-3.5,6.7-4.1
			c1.3-0.3,2.5-0.5,3.8-0.5c1.3,0,2.5,0.1,3.7,0.5l0.2,0.1l2.6,1.4L356.2,714z"/>
	</g>
	<g>
		<path class="st22" d="M347.7,723.2l7.5,1.5l0,0c0.3,0.1,0.6,0.3,0.8,0.5l3.4,6c0.2,0.3,0.1,0.8-0.3,1c-0.3,0.2-0.7,0.1-0.9-0.1
			l-4.7-5l0.8,0.5l-7.1-3c-0.4-0.2-0.5-0.6-0.4-0.9C347,723.3,347.4,723.1,347.7,723.2z"/>
	</g>
	<g>
		<path class="st22" d="M360.2,733l-7.4,10.7l5.2-12c0.3-0.7,1.1-1,1.7-0.7c0.7,0.3,1,1.1,0.7,1.7C360.3,732.9,360.2,733,360.2,733z
			"/>
	</g>
	<g>
		<path class="st22" d="M463.2,625.3l16.7-15.1l-0.5,1.2l0,0c0-0.9,0.2-1.5,0.3-2.2c0.2-0.7,0.4-1.4,0.7-2c0.6-1.3,1.3-2.5,2.3-3.6
			c1.9-2.1,4.5-3.5,7.1-4.2c0.7-0.2,1.3-0.3,2-0.4c0.7-0.1,1.4-0.1,2.1,0c1.4,0.2,2.7,0.5,4,1.1c2.4,1.3,4.4,3.2,5.8,5.5
			c0.1,0.2,0.1,0.5-0.2,0.7c-0.2,0.1-0.5,0.1-0.7-0.1l0,0c-1.4-2-3.3-3.7-5.5-4.6c-1.1-0.5-2.3-0.7-3.4-0.7c-0.6,0-1.2,0-1.8,0.1
			c-0.6,0.1-1.1,0.2-1.7,0.4c-2.3,0.7-4.3,2.1-5.8,3.9c-0.7,0.9-1.2,1.9-1.6,3c-0.2,0.5-0.3,1.1-0.4,1.6c-0.1,0.5-0.2,1.2-0.1,1.6
			l0,0l-0.1,0.4c-0.1,0.3-0.2,0.6-0.5,0.8l-18,13.5c-0.2,0.2-0.5,0.1-0.7-0.1C463,625.8,463,625.5,463.2,625.3z"/>
	</g>
	<g>
		<path class="st23" d="M472.5,637l17-14.2l0.3-0.2l0.4,0.1l0,0c0.8,0.3,1.9,0.4,2.9,0.4c1,0,2-0.2,3-0.5c0.9-0.3,1.9-0.7,2.7-1.3
			c0.5-0.2,0.8-0.6,1.3-0.9c0.4-0.3,0.8-0.7,1.2-1l0.7,0.7c-0.4,0.4-0.8,0.8-1.2,1.1c-0.4,0.3-0.8,0.7-1.3,1c-0.9,0.6-1.9,1.1-3,1.5
			c-1.1,0.4-2.2,0.6-3.3,0.7c-1.1,0.1-2.2,0-3.4-0.3l0,0l0.7-0.1l-17.3,13.8L472.5,637z"/>
	</g>
	<g>
		<path class="st23" d="M478.2,618.8c0.7-0.6,1.5-1.1,2.4-1.5c0.4-0.2,0.9-0.3,1.4-0.3c0.5,0,1.1,0.2,1.5,0.5
			c0.8,0.7,1.1,1.9,0.9,2.9c-0.2,1-0.7,1.9-1.3,2.7l0,0l0,0c-2.2,1.8-4.4,3.6-6.7,5.3c-2.3,1.7-4.6,3.4-7,5c2.1-2,4.2-3.8,6.4-5.7
			c2.2-1.8,4.4-3.6,6.7-5.4l-0.1,0.1c0.5-0.6,1-1.4,1.2-2.2c0.2-0.8,0.1-1.7-0.5-2.3c-0.3-0.3-0.6-0.4-1-0.5c-0.4,0-0.9,0-1.3,0.1
			C479.8,617.9,479,618.3,478.2,618.8z"/>
	</g>
</g>
<g id="Capa_2">
	<path class="st7" d="M316.2,624.5c0,0-21.6,14.4-21.5,26.9c0.1,12.4-7.4,15,3.7,22.8c11.1,7.7,24,10.9,31.3,22.9
		c7.2,11.9,41.3,7.8,40.3-10.2c-0.9-18,8.3-46.9,12.6-48c4.4-1.1,3.8-18.1-20-31.6c0,0-11.9-7-13.4-10.3
		C347.8,593.8,312.1,611.5,316.2,624.5z"/>
	<path class="st14" d="M300.8,639.6c-2.4,3-11.2,14.2-9.1,27.6c3.1,19.2,31.7,18.8,38.5,30.1c7.8,12.9,42.2,3.9,39.6-9.7
		c0,0-2.9,8.7-9.9,10.3c-5.6,1.3-10.7-2.3-15.1-5.7c-15.2-11.6-15.4-25.3-24.8-26.3c-1.1-0.1-0.6,0.1-12.1,0.7
		c-3.4,0.2-6.1,0.3-7.8,0.4c-2.1-1.3-4-3.2-5.1-5.4C291.8,655.4,294.1,646.6,300.8,639.6z"/>
	<path class="st7" d="M432.3,704.5c0,0-34.1,19-57.4-19.8c-0.5-4.9-0.6-9.8-0.3-14.7c0.9-8.2,3.6-16.1,7.9-23.1
		c1.4-2.3,5.9-9,25-21.8c15.9-10.6,23.8-15.9,29.7-15.9c23.5,0.1,45.1,36.8,38.9,49.9c-0.8,1.7-2,3.2-3.4,4.4
		c-5.5,4.2-11.8-0.1-20.9,2.7c-3,0.9-5.8,2.4-8.2,4.4C436.6,676.3,435,685.2,432.3,704.5z"/>
	<path class="st17" d="M376,660c0.3-1.3,2.7-22.3,57.8-50.3c0,0,11.7-9.3,37,23.9c0,0-9.4-24.4-40.9-4.1
		c-31.5,20.2-57.6,42.3-55,55.5"/>
</g>
</svg>
